<?xml version="1.0" encoding="utf-8"?>
<!-- Generator: Adobe Illustrator 16.0.0, SVG Export Plug-In . SVG Version: 6.00 Build 0)  -->
<!DOCTYPE svg PUBLIC "-//W3C//DTD SVG 1.1//EN" "http://www.w3.org/Graphics/SVG/1.1/DTD/svg11.dtd">
<svg version="1.1" id="Layer_1" xmlns="http://www.w3.org/2000/svg" xmlns:xlink="http://www.w3.org/1999/xlink" x="0px" y="0px"
	 width="200px" height="200px" viewBox="0 0 200 200" enable-background="new 0 0 200 200" xml:space="preserve">
<path fill="#E0DD70" d="M109.439,27.553l0.304,40.885c0.02,2.62-0.576,5.102-1.651,7.311l-21.009,0.156
	c-7.042,0.052-13.198,3.752-16.697,9.291l-10.161,0.075l-28.49,18.74l0.658-18.533l-15.502,0.115
	C7.796,85.661,0.372,78.341,0.304,69.251L0,28.366c-0.068-9.1,7.248-16.524,16.342-16.592l76.505-0.568
	C101.942,11.138,109.372,18.454,109.439,27.553z"/>
<path fill="#F95428" d="M199.632,94.974l0.367,49.427c0.082,10.99-8.771,19.971-19.766,20.052l-55.058,0.409l-2.195,23.934
	l-14.333-14.424l-9.26-9.317l-11.643,0.087c-10.996,0.082-19.975-8.766-20.057-19.756l-0.367-49.427
	c-0.03-3.954,1.096-7.645,3.059-10.761h0.005c3.499-5.538,9.655-9.238,16.696-9.291l92.489-0.687
	C190.566,75.136,199.551,83.983,199.632,94.974z"/>
<g>
	<polygon fill="#756C1D" points="40.333,85.478 32.391,85.537 31.735,104.011 39.865,98.663 	"/>
	<path fill="#756C1D" d="M8.244,69.25L7.94,28.366c-0.067-9.099,7.248-16.523,16.342-16.591l69.907-0.519
		c-0.443-0.032-0.89-0.052-1.342-0.049l-76.505,0.568C7.248,11.842-0.067,19.267,0,28.366l0.304,40.885
		c0.068,9.089,7.492,16.41,16.587,16.342l6.599-0.049C15.019,84.923,8.309,77.889,8.244,69.25z"/>
</g>
<g>
	<path fill="#E54728" d="M75.629,145.383l-0.367-49.426c-0.03-3.954,1.096-7.645,3.06-10.761h0.004
		c3.499-5.538,9.655-9.238,16.697-9.291l86.008-0.639c-0.483-0.031-0.969-0.052-1.46-0.048l-92.489,0.687
		c-7.041,0.052-13.197,3.752-16.696,9.291H70.38c-1.963,3.116-3.089,6.808-3.059,10.761l0.367,49.426
		c0.082,10.99,9.061,19.838,20.057,19.756l6.48-0.048C83.907,164.42,75.707,155.883,75.629,145.383z"/>
	<polygon fill="#E54728" points="116.588,174.369 107.329,165.053 99.447,165.111 108.648,174.369 122.981,188.794 123.652,181.479 
			"/>
</g>
<g>
	<path fill="#4D4D4D" d="M43.237,39.254c1.974,0,3.573-1.6,3.573-3.573c0-2.355,0.946-4.541,2.663-6.155
		c1.716-1.612,3.963-2.419,6.326-2.272c4.161,0.258,7.624,3.72,7.882,7.881c0.195,3.143-1.348,6.115-4.028,7.755
		c-4.992,3.056-7.973,8.337-7.973,14.127c0,1.974,1.6,3.573,3.573,3.573s3.573-1.6,3.573-3.573c0-3.283,1.703-6.285,4.557-8.032
		c4.941-3.025,7.789-8.501,7.429-14.292c-0.486-7.821-6.75-14.086-14.571-14.571c-4.354-0.269-8.495,1.22-11.663,4.197
		c-3.124,2.936-4.915,7.077-4.915,11.362C39.664,37.655,41.264,39.254,43.237,39.254z"/>
	<path fill="#4D4D4D" d="M133.51,132.878c2.29,0,4.146-1.856,4.146-4.146V93.633c0-2.29-1.856-4.147-4.146-4.147
		c-2.291,0-4.147,1.857-4.147,4.147v35.099C129.362,131.021,131.219,132.878,133.51,132.878z"/>
	<circle fill="#4D4D4D" cx="133.51" cy="147.312" r="4.147"/>
	<circle fill="#4D4D4D" cx="55.25" cy="70.261" r="3.573"/>
</g>
</svg>
