<?xml version="1.0" encoding="utf-8"?>
<!-- Generator: Adobe Illustrator 16.0.0, SVG Export Plug-In . SVG Version: 6.00 Build 0)  -->
<!DOCTYPE svg PUBLIC "-//W3C//DTD SVG 1.1//EN" "http://www.w3.org/Graphics/SVG/1.1/DTD/svg11.dtd">
<svg version="1.1" id="Capa_1" xmlns="http://www.w3.org/2000/svg" xmlns:xlink="http://www.w3.org/1999/xlink" x="0px" y="0px"
	 width="200px" height="206.5px" viewBox="0 -6.5 200 206.5" enable-background="new 0 -6.5 200 206.5" xml:space="preserve">
<path fill="#EAD8BB" d="M41.379,0c-7.952,0-14.548,6.062-15.414,13.793l-0.103,3.448c0,7.586,6.207,13.793,13.793,13.793h3.448
	h10.345h6.896l6.896-13.793h41.38l-6.763,13.521c-0.062,0.127,0.031,0.272,0.169,0.272h0.729h71.382V0H41.379z"/>
<path fill="#6B4842" d="M101.725,31.035v90.348c0,1.741-2.293,2.379-3.19,0.883l-17.5-29.162l-17.5,29.166
	c-0.897,1.492-3.19,0.857-3.19-0.883V31.035H39.655c-7.586,0-13.793-6.207-13.793-13.793v168.821
	c0,7.696,6.241,13.938,13.938,13.938h134.338V31.035H101.725z"/>
<path fill="#513531" d="M43.104,31.035h-3.448c-7.586,0-13.793-6.207-13.793-13.793v168.821c0,7.696,6.241,13.938,13.938,13.938
	h3.304V31.035z"/>
<path fill="#D3BEA1" d="M174.138,6.896h-31.034c-1.906,0-3.448,1.542-3.448,3.448c0,1.907,1.542,3.448,3.448,3.448h31.034V6.896z"/>
<path fill="#D3BEA1" d="M174.138,17.241h-27.586c-1.907,0-3.448,1.542-3.448,3.448c0,1.907,1.541,3.448,3.448,3.448h27.586V17.241z"
	/>
<path fill="#DD352E" d="M67.241,17.241l-6.896,13.793v90.348c0,1.741,2.297,2.379,3.19,0.883l17.5-29.162l17.5,29.166
	c0.896,1.492,3.19,0.857,3.19-0.883V31.035l6.896-13.793H67.241z"/>
<polygon fill="#B02721" points="67.241,17.241 60.345,31.035 101.725,31.035 108.621,17.241 "/>
</svg>
