<?xml version="1.0" encoding="utf-8"?>
<!-- Generator: Adobe Illustrator 16.0.0, SVG Export Plug-In . SVG Version: 6.00 Build 0)  -->
<!DOCTYPE svg PUBLIC "-//W3C//DTD SVG 1.1//EN" "http://www.w3.org/Graphics/SVG/1.1/DTD/svg11.dtd">
<svg version="1.1" id="Layer_1" xmlns="http://www.w3.org/2000/svg" xmlns:xlink="http://www.w3.org/1999/xlink" x="0px" y="0px"
	 width="200px" height="200px" viewBox="0 0 200 200" enable-background="new 0 0 200 200" xml:space="preserve">
<rect x="49.134" y="39.843" fill="#FFFF7F" width="101.575" height="120.314"/>
<g>
	<path fill="#324A5E" d="M77.48,55.59c-0.158,0-0.158,0-0.315,0c0-0.157,0-0.315,0-0.472V54.96c0,0,0,0,0-0.157
		c-0.158-3.307-2.677-5.827-5.669-5.827s-5.512,2.52-5.669,5.827c0,0,0,0,0,0.157v0.158c0,0.157,0,0.315,0,0.472
		c-0.157,0-0.157,0-0.315,0c-0.472,0.158-0.787,0.945-0.63,1.89c0.158,0.945,0.788,1.732,1.26,1.575c0,0,0.158,0,0.158-0.158
		c0.787,2.52,2.52,4.725,5.039,4.725c2.677,0,4.252-2.205,5.04-4.725l0.158,0.158c0.472,0.157,1.102-0.63,1.26-1.575
		C78.268,56.536,78.11,55.748,77.48,55.59z"/>
	<path fill="#324A5E" d="M77.323,53.071c-0.157-0.945-0.472-1.732-0.787-2.677c-0.158-0.315-0.158-0.472-0.315-0.787
		c-0.315-0.63-0.945-0.945-1.575-0.945c-0.315,0-0.472,0-0.63,0.157c0,0,0,0,0,0.158c-0.157-0.158-0.315-0.315-0.472-0.473
		c-0.315-0.157-0.473-0.157-0.788-0.157c-1.417-0.158-2.52,0.157-3.937,0.315c-0.63,0.157-1.575,0.63-2.047,1.732
		c-0.315,0.945-0.63,1.575-0.787,2.677c-0.158,0.63,0,2.362,0.315,3.307c0,0.158,0.315,0.315,0.472,0
		c0.473-0.788,0.63-2.362,0.945-3.149c0.158-0.158,0.158-0.473,0.315-0.63c0.158-0.158,0.158-0.473,0.315-0.63
		c0.157-0.158,0.472-0.315,0.63-0.158c0.315,0.158,0.315,0.63,0.63,0.788c0.315,0.315,0.63,0.315,1.102,0.315c0.63,0,1.26,0,2.047,0
		c0.315,0,0.473,0,0.788-0.158c0.315-0.157,0.472-0.472,0.63-0.787c0-0.158,0.157-0.315,0.157-0.473c0,0,0,0.157,0.158,0.157
		c0.315,0.473,0.63,1.103,1.102,1.417c0.315,0.158,0.63,0.473,0.788,0.63c0.473,0.63,0.63,1.417,0.788,2.205
		c0,0.158,0,0.315,0.157,0.315c0.158,0,0.158,0,0.315-0.158c0-0.158,0-0.158,0-0.315C77.323,55.118,77.323,54.173,77.323,53.071z"/>
	<path fill="#324A5E" d="M83.149,74.331c-1.102-4.724-5.984-8.346-11.653-8.346s-10.551,3.622-11.654,8.346H83.149z"/>
	<path fill="#324A5E" d="M77.48,93.701c-0.158,0-0.158,0-0.315,0c0-0.157,0-0.315,0-0.472v-0.158c0,0,0,0,0-0.157
		c-0.158-3.307-2.677-5.827-5.669-5.827s-5.512,2.52-5.669,5.827c0,0,0,0,0,0.157v0.158c0,0.157,0,0.315,0,0.472
		c-0.157,0-0.157,0-0.315,0c-0.472,0.158-0.787,0.945-0.63,1.89c0.158,0.945,0.788,1.732,1.26,1.575c0,0,0.158,0,0.158-0.158
		c0.787,2.52,2.52,4.725,5.039,4.725c2.677,0,4.252-2.205,5.04-4.725l0.158,0.158c0.472,0.157,1.102-0.63,1.26-1.575
		C78.268,94.646,78.11,93.701,77.48,93.701z"/>
	<path fill="#324A5E" d="M77.323,91.181c-0.157-0.945-0.472-1.732-0.787-2.677c-0.158-0.315-0.158-0.473-0.315-0.787
		c-0.315-0.63-0.945-0.945-1.575-0.945c-0.315,0-0.472,0-0.63,0.158c0,0,0,0,0,0.157c-0.157-0.157-0.315-0.315-0.472-0.472
		c-0.315-0.158-0.473-0.158-0.788-0.158c-1.417-0.157-2.52,0.158-3.937,0.315c-0.63,0.158-1.575,0.63-2.047,1.732
		c-0.315,0.945-0.63,1.575-0.787,2.677c-0.158,0.63,0,2.362,0.315,3.307c0,0.157,0.315,0.315,0.472,0
		c0.473-0.788,0.63-2.362,0.945-3.15c0.158-0.157,0.158-0.472,0.315-0.63c0.158-0.157,0.158-0.472,0.315-0.63
		c0.157-0.157,0.472-0.315,0.63-0.157c0.315,0.157,0.315,0.63,0.63,0.787c0.315,0.315,0.63,0.315,1.102,0.315c0.63,0,1.26,0,2.047,0
		c0.315,0,0.473,0,0.788-0.157c0.315-0.158,0.472-0.473,0.63-0.788c0-0.157,0.157-0.315,0.157-0.472c0,0,0,0.157,0.158,0.157
		c0.315,0.473,0.63,1.103,1.102,1.417c0.315,0.157,0.63,0.472,0.788,0.63c0.473,0.63,0.63,1.417,0.788,2.205
		c0,0.158,0,0.315,0.157,0.315c0.158,0,0.158,0,0.315-0.157c0-0.158,0-0.158,0-0.315C77.323,93.229,77.323,92.126,77.323,91.181z"/>
	<path fill="#324A5E" d="M83.149,112.441c-1.102-4.725-5.984-8.347-11.653-8.347s-10.551,3.622-11.654,8.347H83.149z"/>
	<path fill="#324A5E" d="M77.48,131.811c-0.158,0-0.158,0-0.315,0c0-0.157,0-0.314,0-0.473v-0.156c0,0,0,0,0-0.158
		c-0.158-3.307-2.677-5.826-5.669-5.826s-5.512,2.52-5.669,5.826c0,0,0,0,0,0.158v0.156c0,0.158,0,0.315,0,0.473
		c-0.157,0-0.157,0-0.315,0c-0.472,0.158-0.787,0.945-0.63,1.891c0.158,0.944,0.788,1.732,1.26,1.574c0,0,0.158,0,0.158-0.157
		c0.787,2.52,2.52,4.725,5.039,4.725c2.677,0,4.252-2.205,5.04-4.725l0.158,0.157c0.472,0.158,1.102-0.63,1.26-1.574
		C78.268,132.756,78.11,131.811,77.48,131.811z"/>
	<path fill="#324A5E" d="M77.323,129.291c-0.157-0.944-0.472-1.732-0.787-2.677c-0.158-0.315-0.158-0.473-0.315-0.788
		c-0.315-0.629-0.945-0.944-1.575-0.944c-0.315,0-0.472,0-0.63,0.157c0,0,0,0,0,0.158c-0.157-0.158-0.315-0.315-0.472-0.473
		c-0.315-0.158-0.473-0.158-0.788-0.158c-1.417-0.156-2.52,0.158-3.937,0.315c-0.63,0.157-1.575,0.63-2.047,1.732
		c-0.315,0.944-0.63,1.575-0.787,2.677c-0.158,0.631,0,2.362,0.315,3.308c0,0.157,0.315,0.315,0.472,0
		c0.473-0.788,0.63-2.362,0.945-3.149c0.158-0.158,0.158-0.473,0.315-0.631c0.158-0.157,0.158-0.472,0.315-0.629
		c0.157-0.158,0.472-0.315,0.63-0.158c0.315,0.158,0.315,0.63,0.63,0.787c0.315,0.315,0.63,0.315,1.102,0.315c0.63,0,1.26,0,2.047,0
		c0.315,0,0.473,0,0.788-0.157c0.315-0.158,0.472-0.473,0.63-0.787c0-0.158,0.157-0.315,0.157-0.473c0,0,0,0.157,0.158,0.157
		c0.315,0.473,0.63,1.103,1.102,1.417c0.315,0.158,0.63,0.473,0.788,0.631c0.473,0.629,0.63,1.416,0.788,2.204
		c0,0.157,0,0.315,0.157,0.315c0.158,0,0.158,0,0.315-0.158c0-0.157,0-0.157,0-0.314C77.323,131.338,77.323,130.236,77.323,129.291z
		"/>
	<path fill="#324A5E" d="M83.149,150.551c-1.102-4.725-5.984-8.346-11.653-8.346s-10.551,3.621-11.654,8.346H83.149z"/>
	<rect x="90.394" y="56.063" fill="#324A5E" width="49.134" height="10.551"/>
	<rect x="90.394" y="94.173" fill="#324A5E" width="49.134" height="10.551"/>
	<rect x="90.394" y="132.126" fill="#324A5E" width="49.134" height="10.552"/>
</g>
<g>
	<rect x="92.914" y="58.11" fill="#4CDBC4" width="37.165" height="6.457"/>
	<rect x="92.914" y="96.221" fill="#4CDBC4" width="21.889" height="6.457"/>
	<rect x="92.914" y="134.33" fill="#4CDBC4" width="32.284" height="6.457"/>
</g>
</svg>
