<?xml version="1.0" encoding="utf-8"?>
<!-- Generator: Adobe Illustrator 16.0.0, SVG Export Plug-In . SVG Version: 6.00 Build 0)  -->
<!DOCTYPE svg PUBLIC "-//W3C//DTD SVG 1.1//EN" "http://www.w3.org/Graphics/SVG/1.1/DTD/svg11.dtd">
<svg version="1.1" id="Layer_1" xmlns="http://www.w3.org/2000/svg" xmlns:xlink="http://www.w3.org/1999/xlink" x="0px" y="0px"
	 width="200px" height="200px" viewBox="0 0 200 200" enable-background="new 0 0 200 200" xml:space="preserve">
<g>
	<path fill="#A09C99" d="M96.804,150.199l-16.511,16.512c-12.916,12.916-33.955,12.916-46.871,0s-12.916-33.955,0-46.871
		l16.511-16.512c12.917-12.916,33.955-12.916,46.871,0C109.721,116.245,109.721,137.283,96.804,150.199z M44.874,131.158
		c-6.658,6.658-6.658,17.311,0,23.969c6.658,6.658,17.31,6.658,23.968,0l16.511-16.512c6.658-6.658,6.658-17.311,0-23.968
		c-6.658-6.658-17.31-6.658-23.968,0L44.874,131.158z"/>
	<path fill="#A09C99" d="M166.578,80.293l-16.512,16.511c-12.916,12.917-33.955,12.917-46.871,0
		c-12.916-12.916-12.916-33.955,0-46.871l16.512-16.512c12.916-12.916,33.955-12.916,46.871,0S179.494,67.377,166.578,80.293z
		 M114.78,61.252c-6.657,6.658-6.657,17.31,0,23.968c6.658,6.658,17.31,6.658,23.968,0l16.512-16.511
		c6.658-6.658,6.658-17.31,0-23.968c-6.658-6.658-17.311-6.658-23.968,0L114.78,61.252z"/>
</g>
<path fill="#DEDEDF" d="M127.297,84.288l-43.009,43.009c-3.196,3.196-8.256,3.196-11.451,0c-3.195-3.195-3.196-8.256,0-11.451
	l42.876-43.143c3.195-3.196,8.256-3.196,11.451,0S130.359,81.092,127.297,84.288z"/>
</svg>
