<?xml version="1.0" encoding="utf-8"?>
<!-- Generator: Adobe Illustrator 16.0.0, SVG Export Plug-In . SVG Version: 6.00 Build 0)  -->
<!DOCTYPE svg PUBLIC "-//W3C//DTD SVG 1.1//EN" "http://www.w3.org/Graphics/SVG/1.1/DTD/svg11.dtd">
<svg version="1.1" id="Layer_1" xmlns="http://www.w3.org/2000/svg" xmlns:xlink="http://www.w3.org/1999/xlink" x="0px" y="0px"
	 width="200px" height="200px" viewBox="0 0 200 200" enable-background="new 0 0 200 200" xml:space="preserve">
<ellipse fill="#324A5E" cx="145.354" cy="93.858" rx="15.275" ry="14.96"/>
<polygon fill="#EADA7F" points="136.221,134.803 75.433,117.322 75.433,70.394 136.221,52.914 "/>
<g>
	<path fill="#FF7058" d="M142.52,45.984h-0.314c-3.308,0-5.984,2.677-5.984,5.984v83.621c0,3.308,2.677,5.984,5.984,5.984h0.314
		c3.307,0,5.984-2.677,5.984-5.984V51.969C148.504,48.662,145.826,45.984,142.52,45.984z"/>
	<path fill="#FF7058" d="M44.882,70.394c-5.04,0-8.977,4.095-8.977,8.977v28.977c0,5.039,4.095,8.976,8.977,8.976h30.551V70.394
		H44.882z"/>
</g>
<path fill="#324A5E" d="M65.04,117.166H49.606l8.661,41.574c0.158,0.787,0.788,1.417,1.732,1.417h11.968
	c1.103,0,1.89-0.944,1.732-2.047L65.04,117.166z"/>
</svg>
