<?xml version="1.0" encoding="utf-8"?>
<!-- Generator: Adobe Illustrator 16.0.0, SVG Export Plug-In . SVG Version: 6.00 Build 0)  -->
<!DOCTYPE svg PUBLIC "-//W3C//DTD SVG 1.1//EN" "http://www.w3.org/Graphics/SVG/1.1/DTD/svg11.dtd">
<svg version="1.1" id="Layer_1" xmlns="http://www.w3.org/2000/svg" xmlns:xlink="http://www.w3.org/1999/xlink" x="0px" y="0px"
	 width="200px" height="200px" viewBox="0 0 200 200" enable-background="new 0 0 200 200" xml:space="preserve">
<path fill="#FFBA1B" d="M156.577,61.644L17.785,109.402l42.277,8.433L156.577,61.644L156.577,61.644z"/>
<path fill="#20D0C2" d="M17.785,109.402l42.277,8.433l28.059-16.336L17.785,109.402z"/>
<path fill="#F5A209" d="M60.062,117.835l6.549,49.836l89.965-106.027L60.062,117.835z"/>
<path fill="#15BDB1" d="M60.062,117.835l6.549,49.836l40.209-47.39l-6.94-11.309l-13.751,11.479l1.992-18.953l0,0L60.062,117.835
	L60.062,117.835z"/>
<path fill="#FECD0D" d="M156.577,61.644l-81.333,67.895l-8.632,38.133L156.577,61.644z"/>
<path fill="#20D0C2" d="M86.129,120.451l-10.885,9.087l-8.632,38.133l40.21-47.389l-6.941-11.31l-13.75,11.479l0,0H86.129z"/>
<path fill="#FFBA1B" d="M128.91,156.278l27.667-94.635l-81.333,67.895L128.91,156.278L128.91,156.278z"/>
<path fill="#20D0C2" d="M86.068,120.451l-10.885,9.087l53.666,26.739L99.82,108.973l-13.752,11.48V120.451L86.068,120.451z"/>
</svg>
